<svg width="24" height="24" viewBox="0 0 24 24" fill="none" xmlns="http://www.w3.org/2000/svg">
<path fill-rule="evenodd" clip-rule="evenodd" d="M16.8039 3.19573C16.4134 2.8052 15.7803 2.8052 15.3897 3.19573L5.36475 13.2207C5.25498 13.3305 5.17227 13.4643 5.12318 13.6116L4.12068 16.6191C4.0009 16.9784 4.09442 17.3746 4.36226 17.6424C4.63009 17.9102 5.02626 18.0038 5.38559 17.884L8.39308 16.8815C8.54036 16.8324 8.67419 16.7497 8.78396 16.6399L18.8089 6.61493C19.1995 6.22441 19.1995 5.59124 18.8089 5.20072L16.8039 3.19573ZM6.07186 13.9278L5.46465 15.7494L5.06936 16.9353L6.25522 16.54L8.07686 15.9328L17.3947 6.61493L18.1018 5.90783L17.3947 5.20072L16.8039 4.60994L16.0968 3.90283L15.3897 4.60994L6.07186 13.9278ZM5 18.6767C4.58579 18.6767 4.25 19.0125 4.25 19.4267C4.25 19.8409 4.58579 20.1767 5 20.1767H19.5908C20.005 20.1767 20.3408 19.8409 20.3408 19.4267C20.3408 19.0125 20.005 18.6767 19.5908 18.6767H5Z" fill="#8C8C8C"/>
</svg>
