<svg width="24" height="24" viewBox="0 0 24 24" fill="none" xmlns="http://www.w3.org/2000/svg">
<path fill-rule="evenodd" clip-rule="evenodd" d="M3.5293 11.5V8.5H8.5293V11.5H3.5293ZM3.5293 12.5V15.5H8.5293V12.5H3.5293ZM3.5293 16.5V19C3.5293 19.5523 3.97701 20 4.5293 20H8.5293V16.5H3.5293ZM9.5293 20H15.0293V16.5H9.5293V20ZM16.0293 20H19.5293C20.0816 20 20.5293 19.5523 20.5293 19V16.5H16.0293V20ZM20.5293 15.5V12.5H16.0293V15.5H20.5293ZM20.5293 11.5V8.5H16.0293V11.5H20.5293ZM2.5293 6V8V19C2.5293 20.1046 3.42473 21 4.5293 21H19.5293C20.6339 21 21.5293 20.1046 21.5293 19V8V6C21.5293 4.89543 20.6339 4 19.5293 4H4.5293C3.42473 4 2.5293 4.89543 2.5293 6ZM9.5293 11.5V8.5H15.0293V11.5H9.5293ZM9.5293 12.5H15.0293V15.5H9.5293V12.5Z" fill="#8C8C8C"/>
</svg>
